<?xml version="1.0" encoding="utf-8"?>
<!-- Generator: Adobe Illustrator 22.0.1, SVG Export Plug-In . SVG Version: 6.00 Build 0)  -->
<svg version="1.1" id="Layer_1" xmlns="http://www.w3.org/2000/svg" xmlns:xlink="http://www.w3.org/1999/xlink" x="0px" y="0px"
	 viewBox="0 0 2801 461" style="enable-background:new 0 0 2801 461;" xml:space="preserve">
<style type="text/css">
	.st0{opacity:0.13;}
</style>
<g>
	<g transform="translate(484 -2539)" class="st0">
		<g>
			<path id="l0ica" d="M733,2539.4l180.2,230.5L735.5,2999l399.2-0.4l170.3-229.1L1132.2,2539L733,2539.4z"/>
		</g>
	</g>
	<g transform="translate(484 -2539)" class="st0">
		<g>
			<path id="l0icb" d="M1831,2539.4l186.1,230.5L1833.6,2999l108.5-0.4l175.9-229.1L1939.5,2539L1831,2539.4z"/>
		</g>
	</g>
	<g transform="translate(484 -2539)" class="st0">
		<g>
			<path id="l0icc" d="M2030,2539.4l186.1,230.5L2032.6,2999l108.5-0.4l175.9-229.1L2138.5,2539L2030,2539.4z"/>
		</g>
	</g>
	<g transform="translate(484 -2539)" class="st0">
		<g>
			<path id="l0icd" d="M1430,2539.4l181.3,230.5L1432.5,2999l303.1-0.3l171.3-229.2L1733.2,2539L1430,2539.4z"/>
		</g>
	</g>
	<g transform="translate(484 -2539)" class="st0">
		<g>
			<path id="l0ice" d="M1229,2539.4l186.1,230.4L1231.6,2999l108.5-0.4l175.9-229.1L1337.4,2539L1229,2539.4z"/>
		</g>
	</g>
	<g transform="translate(484 -2539)" class="st0">
		<g>
			<path id="l0icf" d="M623.5,2539l-108.5,0.4l186.1,230.4L517.6,2999l108.5-0.4L802,2769.5L623.5,2539z"/>
		</g>
	</g>
	<g transform="translate(484 -2539)" class="st0">
		<g>
			<path id="l0icg" d="M105,2539.4l181.3,230.5L107.5,2999l303.2-0.3L582,2769.5L408.2,2539L105,2539.4z"/>
		</g>
	</g>
	<g transform="translate(484 -2539)" class="st0">
		<g>
			<path id="l0ich" d="M-484,2539.4l181.3,230.5L-481.5,2999l303.2-0.3L-7,2769.5L-180.8,2539L-484,2539.4z"/>
		</g>
	</g>
	<g transform="translate(484 -2539)" class="st0">
		<g>
			<path id="l0ici" d="M-99,2539.4l186.1,230.4L-96.4,2999l108.5-0.4L188,2769.5L9.4,2539L-99,2539.4z"/>
		</g>
	</g>
</g>
</svg>
